<svg width="28" height="28" viewBox="0 0 28 28" fill="none" xmlns="http://www.w3.org/2000/svg">
<path d="M10.5008 14C10.5008 12.0671 12.0674 10.4997 14.0005 10.4997C15.9334 10.4997 17.5008 12.0671 17.5008 14C17.5008 15.9329 15.9334 17.5002 14.0005 17.5002C12.0674 17.5002 10.5008 15.9329 10.5008 14ZM8.60858 14C8.60858 16.9778 11.0225 19.3916 14.0005 19.3916C16.9784 19.3916 19.3922 16.9778 19.3922 14C19.3922 11.0222 16.9784 8.60838 14.0005 8.60838C11.0225 8.60838 8.60858 11.0222 8.60858 14ZM18.3457 8.3946C18.3454 9.09048 18.9093 9.65482 19.6053 9.6551C20.3012 9.65538 20.8655 9.09148 20.8657 8.3956C20.8661 7.69972 20.3021 7.13538 19.6062 7.1351C18.9106 7.13543 18.3463 7.69904 18.3457 8.3946ZM9.75824 22.5468C8.73451 22.5001 8.17806 22.3296 7.80828 22.1856C7.31803 21.9947 6.96824 21.7674 6.60047 21.4002C6.23272 21.0329 6.00507 20.6835 5.81505 20.1932C5.6709 19.8236 5.50037 19.267 5.45383 18.2434C5.40293 17.1366 5.39276 16.8041 5.39276 14.0001C5.39276 11.1961 5.40377 10.8645 5.45383 9.75682C5.50046 8.73312 5.67224 8.17762 5.81505 7.80694C6.00591 7.3167 6.23322 6.96694 6.60047 6.59918C6.96774 6.23142 7.31719 6.00378 7.80828 5.81378C8.17789 5.66964 8.73451 5.49912 9.75824 5.45258C10.8651 5.40168 11.1976 5.39152 14.0005 5.39152C16.8033 5.39152 17.1361 5.40252 18.2439 5.45258C19.2676 5.4992 19.8231 5.67098 20.1938 5.81378C20.6841 6.00378 21.0338 6.23194 21.4016 6.59918C21.7694 6.96642 21.9962 7.3167 22.1871 7.80694C22.3312 8.17654 22.5017 8.73312 22.5483 9.75682C22.5992 10.8645 22.6093 11.1961 22.6093 14.0001C22.6093 16.8041 22.5992 17.1356 22.5483 18.2434C22.5016 19.267 22.3302 19.8234 22.1871 20.1932C21.9962 20.6835 21.7688 21.0332 21.4016 21.4002C21.0343 21.7671 20.6841 21.9947 20.1938 22.1856C19.8242 22.3296 19.2676 22.5002 18.2439 22.5468C17.137 22.5976 16.8045 22.6078 14.0005 22.6078C11.1963 22.6078 10.8647 22.5976 9.75824 22.5468ZM9.6713 3.56358C8.55347 3.6145 7.78963 3.79174 7.12256 4.0513C6.43172 4.31934 5.84689 4.67894 5.26247 5.2624C4.67807 5.84586 4.31937 6.4316 4.05131 7.12242C3.79175 7.78988 3.6145 8.55328 3.5636 9.67106C3.51184 10.7906 3.5 11.1485 3.5 14C3.5 16.8514 3.51184 17.2094 3.5636 18.3289C3.6145 19.4468 3.79175 20.2102 4.05131 20.8776C4.31937 21.5679 4.67815 22.1544 5.26247 22.7376C5.8468 23.3209 6.43172 23.6799 7.12256 23.9487C7.79089 24.2082 8.55347 24.3855 9.6713 24.4364C10.7915 24.4873 11.1488 24.5 14.0005 24.5C16.852 24.5 17.21 24.4881 18.3295 24.4364C19.4474 24.3855 20.2107 24.2082 20.8783 23.9487C21.5687 23.6799 22.1539 23.3211 22.7383 22.7376C23.3228 22.1542 23.6808 21.5679 23.9496 20.8776C24.2091 20.2102 24.3872 19.4467 24.4372 18.3289C24.4881 17.2086 24.5 16.8514 24.5 14C24.5 11.1485 24.4881 10.7906 24.4372 9.67106C24.3864 8.55318 24.2091 7.78946 23.9496 7.12242C23.6808 6.43202 23.3219 5.8468 22.7383 5.2624C22.1549 4.67802 21.5687 4.31934 20.8791 4.0513C20.2107 3.79174 19.4474 3.61366 18.3303 3.56358C17.2108 3.51268 16.8528 3.5 14.0013 3.5C11.1497 3.5 10.7915 3.51184 9.6713 3.56358Z" fill="#ECE2CD"/>
</svg>
